<svg xmlns="http://www.w3.org/2000/svg" viewBox="0 0 32 32" width="100%" height="100%">
  <defs>
    <linearGradient id="quillGrad" x1="0%" y1="0%" x2="100%" y2="100%">
      <stop offset="0%" stop-color="#FFB74D"/>
      <stop offset="40%" stop-color="#F06292"/>
      <stop offset="100%" stop-color="#4A148C"/>
    </linearGradient>
    
    <linearGradient id="vGrad" x1="0%" y1="0%" x2="0%" y2="100%">
      <stop offset="0%" stop-color="#AB47BC"/>
      <stop offset="100%" stop-color="#4527A0"/>
    </linearGradient>
  </defs>

  <path d="M 6 8 L 16 26 L 26 8 L 21 8 L 16 18 L 11 8 Z" fill="url(#vGrad)"/>

  <path d="M 28 4 C 23 5 16 13 11 20 C 8 24 6 28 6 28 C 8 26 11 23 13 21 C 11 22 10 22 10 22 C 14 15 20 9 24 6 C 22 7.5 20 8.5 20 8.5 C 24 4.5 28 4 28 4 Z" fill="url(#quillGrad)"/>
  
  <path d="M 26 6 L 8 26" stroke="#FFE082" stroke-width="0.75" fill="none" opacity="0.8"/>
</svg>
